<mxfile host="app.diagrams.net" modified="2023-05-24T18:54:21.691Z" agent="Mozilla/5.0 (Windows NT 10.0; Win64; x64) AppleWebKit/537.36 (KHTML, like Gecko) Chrome/113.0.0.0 Safari/537.36" etag="PVcANR89TGyr5-iIR_FX" version="21.3.2" type="github">
  <diagram name="Página-1" id="MAWcZr7gNyCnPVqW4qMv">
    <mxGraphModel dx="1648" dy="746" grid="1" gridSize="10" guides="1" tooltips="1" connect="1" arrows="1" fold="1" page="1" pageScale="1" pageWidth="827" pageHeight="1169" math="0" shadow="0">
      <root>
        <mxCell id="0" />
        <mxCell id="1" parent="0" />
        <mxCell id="kaFf4kRh5IlnlxzWk7b9-1" value="COLABORADORES" style="rounded=0;whiteSpace=wrap;html=1;fillColor=#dae8fc;strokeColor=#6c8ebf;" vertex="1" parent="1">
          <mxGeometry x="-10" y="430" width="120" height="60" as="geometry" />
        </mxCell>
        <mxCell id="kaFf4kRh5IlnlxzWk7b9-2" value="ARTICULOS" style="rounded=0;whiteSpace=wrap;html=1;fillColor=#dae8fc;strokeColor=#6c8ebf;" vertex="1" parent="1">
          <mxGeometry x="-10" y="630" width="120" height="60" as="geometry" />
        </mxCell>
        <mxCell id="kaFf4kRh5IlnlxzWk7b9-33" style="rounded=0;orthogonalLoop=1;jettySize=auto;html=1;shape=link;" edge="1" parent="1" source="kaFf4kRh5IlnlxzWk7b9-3" target="kaFf4kRh5IlnlxzWk7b9-25">
          <mxGeometry relative="1" as="geometry" />
        </mxCell>
        <mxCell id="kaFf4kRh5IlnlxzWk7b9-34" style="rounded=0;orthogonalLoop=1;jettySize=auto;html=1;shape=link;" edge="1" parent="1" source="kaFf4kRh5IlnlxzWk7b9-3" target="kaFf4kRh5IlnlxzWk7b9-23">
          <mxGeometry relative="1" as="geometry" />
        </mxCell>
        <mxCell id="kaFf4kRh5IlnlxzWk7b9-35" style="rounded=0;orthogonalLoop=1;jettySize=auto;html=1;shape=link;" edge="1" parent="1" source="kaFf4kRh5IlnlxzWk7b9-3" target="kaFf4kRh5IlnlxzWk7b9-24">
          <mxGeometry relative="1" as="geometry" />
        </mxCell>
        <mxCell id="kaFf4kRh5IlnlxzWk7b9-36" style="rounded=0;orthogonalLoop=1;jettySize=auto;html=1;shape=link;" edge="1" parent="1" source="kaFf4kRh5IlnlxzWk7b9-3" target="kaFf4kRh5IlnlxzWk7b9-22">
          <mxGeometry relative="1" as="geometry" />
        </mxCell>
        <mxCell id="kaFf4kRh5IlnlxzWk7b9-3" value="CATEGORIAS" style="rounded=0;whiteSpace=wrap;html=1;fillColor=#dae8fc;strokeColor=#6c8ebf;" vertex="1" parent="1">
          <mxGeometry x="340" y="635" width="120" height="60" as="geometry" />
        </mxCell>
        <mxCell id="kaFf4kRh5IlnlxzWk7b9-48" style="edgeStyle=none;shape=link;rounded=0;orthogonalLoop=1;jettySize=auto;html=1;entryX=0;entryY=0.5;entryDx=0;entryDy=0;labelBackgroundColor=default;strokeColor=default;fontFamily=Helvetica;fontSize=11;fontColor=default;endArrow=classic;" edge="1" parent="1" source="kaFf4kRh5IlnlxzWk7b9-4" target="kaFf4kRh5IlnlxzWk7b9-1">
          <mxGeometry relative="1" as="geometry" />
        </mxCell>
        <mxCell id="kaFf4kRh5IlnlxzWk7b9-4" value="NOMBRE" style="ellipse;whiteSpace=wrap;html=1;" vertex="1" parent="1">
          <mxGeometry x="-200" y="440" width="120" height="40" as="geometry" />
        </mxCell>
        <mxCell id="kaFf4kRh5IlnlxzWk7b9-49" style="edgeStyle=none;shape=link;rounded=0;orthogonalLoop=1;jettySize=auto;html=1;labelBackgroundColor=default;strokeColor=default;fontFamily=Helvetica;fontSize=11;fontColor=default;endArrow=classic;" edge="1" parent="1" source="kaFf4kRh5IlnlxzWk7b9-5" target="kaFf4kRh5IlnlxzWk7b9-1">
          <mxGeometry relative="1" as="geometry" />
        </mxCell>
        <mxCell id="kaFf4kRh5IlnlxzWk7b9-5" value="APELLIDO" style="ellipse;whiteSpace=wrap;html=1;" vertex="1" parent="1">
          <mxGeometry x="-200" y="365" width="120" height="40" as="geometry" />
        </mxCell>
        <mxCell id="kaFf4kRh5IlnlxzWk7b9-52" style="edgeStyle=none;shape=link;rounded=0;orthogonalLoop=1;jettySize=auto;html=1;labelBackgroundColor=default;strokeColor=default;fontFamily=Helvetica;fontSize=11;fontColor=default;endArrow=classic;" edge="1" parent="1" source="kaFf4kRh5IlnlxzWk7b9-6" target="kaFf4kRh5IlnlxzWk7b9-1">
          <mxGeometry relative="1" as="geometry" />
        </mxCell>
        <mxCell id="kaFf4kRh5IlnlxzWk7b9-53" style="edgeStyle=none;shape=link;rounded=0;orthogonalLoop=1;jettySize=auto;html=1;labelBackgroundColor=default;strokeColor=default;fontFamily=Helvetica;fontSize=11;fontColor=default;endArrow=classic;" edge="1" parent="1" source="kaFf4kRh5IlnlxzWk7b9-6" target="kaFf4kRh5IlnlxzWk7b9-9">
          <mxGeometry relative="1" as="geometry" />
        </mxCell>
        <mxCell id="kaFf4kRh5IlnlxzWk7b9-54" style="edgeStyle=none;shape=link;rounded=0;orthogonalLoop=1;jettySize=auto;html=1;labelBackgroundColor=default;strokeColor=default;fontFamily=Helvetica;fontSize=11;fontColor=default;endArrow=classic;" edge="1" parent="1" source="kaFf4kRh5IlnlxzWk7b9-6" target="kaFf4kRh5IlnlxzWk7b9-12">
          <mxGeometry relative="1" as="geometry" />
        </mxCell>
        <mxCell id="kaFf4kRh5IlnlxzWk7b9-55" style="edgeStyle=none;shape=link;rounded=0;orthogonalLoop=1;jettySize=auto;html=1;labelBackgroundColor=default;strokeColor=default;fontFamily=Helvetica;fontSize=11;fontColor=default;endArrow=classic;" edge="1" parent="1" source="kaFf4kRh5IlnlxzWk7b9-6" target="kaFf4kRh5IlnlxzWk7b9-11">
          <mxGeometry relative="1" as="geometry" />
        </mxCell>
        <mxCell id="kaFf4kRh5IlnlxzWk7b9-56" style="edgeStyle=none;shape=link;rounded=0;orthogonalLoop=1;jettySize=auto;html=1;labelBackgroundColor=default;strokeColor=default;fontFamily=Helvetica;fontSize=11;fontColor=default;endArrow=classic;" edge="1" parent="1" source="kaFf4kRh5IlnlxzWk7b9-6" target="kaFf4kRh5IlnlxzWk7b9-10">
          <mxGeometry relative="1" as="geometry" />
        </mxCell>
        <mxCell id="kaFf4kRh5IlnlxzWk7b9-6" value="USUARIO" style="ellipse;whiteSpace=wrap;html=1;" vertex="1" parent="1">
          <mxGeometry x="40" y="250" width="120" height="40" as="geometry" />
        </mxCell>
        <mxCell id="kaFf4kRh5IlnlxzWk7b9-50" style="edgeStyle=none;shape=link;rounded=0;orthogonalLoop=1;jettySize=auto;html=1;labelBackgroundColor=default;strokeColor=default;fontFamily=Helvetica;fontSize=11;fontColor=default;endArrow=classic;" edge="1" parent="1" source="kaFf4kRh5IlnlxzWk7b9-7" target="kaFf4kRh5IlnlxzWk7b9-1">
          <mxGeometry relative="1" as="geometry" />
        </mxCell>
        <mxCell id="kaFf4kRh5IlnlxzWk7b9-7" value="TELEFONO" style="ellipse;whiteSpace=wrap;html=1;" vertex="1" parent="1">
          <mxGeometry x="-180" y="300" width="120" height="40" as="geometry" />
        </mxCell>
        <mxCell id="kaFf4kRh5IlnlxzWk7b9-51" style="edgeStyle=none;shape=link;rounded=0;orthogonalLoop=1;jettySize=auto;html=1;labelBackgroundColor=default;strokeColor=default;fontFamily=Helvetica;fontSize=11;fontColor=default;endArrow=classic;" edge="1" parent="1" source="kaFf4kRh5IlnlxzWk7b9-8" target="kaFf4kRh5IlnlxzWk7b9-1">
          <mxGeometry relative="1" as="geometry" />
        </mxCell>
        <mxCell id="kaFf4kRh5IlnlxzWk7b9-8" value="EMAIL" style="ellipse;whiteSpace=wrap;html=1;" vertex="1" parent="1">
          <mxGeometry x="-90" y="270" width="120" height="30" as="geometry" />
        </mxCell>
        <mxCell id="kaFf4kRh5IlnlxzWk7b9-9" value="CONTRASEÑA" style="ellipse;whiteSpace=wrap;html=1;" vertex="1" parent="1">
          <mxGeometry x="150" y="140" width="120" height="40" as="geometry" />
        </mxCell>
        <mxCell id="kaFf4kRh5IlnlxzWk7b9-10" value="ESTADO" style="ellipse;whiteSpace=wrap;html=1;" vertex="1" parent="1">
          <mxGeometry x="210" y="325" width="120" height="40" as="geometry" />
        </mxCell>
        <mxCell id="kaFf4kRh5IlnlxzWk7b9-11" value="FECHA DE REGISTRO" style="ellipse;whiteSpace=wrap;html=1;" vertex="1" parent="1">
          <mxGeometry x="220" y="250" width="120" height="50" as="geometry" />
        </mxCell>
        <mxCell id="kaFf4kRh5IlnlxzWk7b9-12" value="AVATAR" style="ellipse;whiteSpace=wrap;html=1;" vertex="1" parent="1">
          <mxGeometry x="210" y="200" width="120" height="30" as="geometry" />
        </mxCell>
        <mxCell id="kaFf4kRh5IlnlxzWk7b9-44" style="edgeStyle=none;shape=link;rounded=0;orthogonalLoop=1;jettySize=auto;html=1;labelBackgroundColor=default;strokeColor=default;fontFamily=Helvetica;fontSize=11;fontColor=default;endArrow=classic;" edge="1" parent="1" source="kaFf4kRh5IlnlxzWk7b9-13" target="kaFf4kRh5IlnlxzWk7b9-2">
          <mxGeometry relative="1" as="geometry" />
        </mxCell>
        <mxCell id="kaFf4kRh5IlnlxzWk7b9-46" style="edgeStyle=none;shape=link;rounded=0;orthogonalLoop=1;jettySize=auto;html=1;labelBackgroundColor=default;strokeColor=default;fontFamily=Helvetica;fontSize=11;fontColor=default;endArrow=classic;" edge="1" parent="1" source="kaFf4kRh5IlnlxzWk7b9-13" target="kaFf4kRh5IlnlxzWk7b9-1">
          <mxGeometry relative="1" as="geometry" />
        </mxCell>
        <mxCell id="kaFf4kRh5IlnlxzWk7b9-13" value="escriben" style="rhombus;whiteSpace=wrap;html=1;fillColor=#fff2cc;strokeColor=#d6b656;" vertex="1" parent="1">
          <mxGeometry x="10" y="540" width="80" height="50" as="geometry" />
        </mxCell>
        <mxCell id="kaFf4kRh5IlnlxzWk7b9-45" style="edgeStyle=none;shape=link;rounded=0;orthogonalLoop=1;jettySize=auto;html=1;labelBackgroundColor=default;strokeColor=default;fontFamily=Helvetica;fontSize=11;fontColor=default;endArrow=classic;" edge="1" parent="1" source="kaFf4kRh5IlnlxzWk7b9-14" target="kaFf4kRh5IlnlxzWk7b9-2">
          <mxGeometry relative="1" as="geometry" />
        </mxCell>
        <mxCell id="kaFf4kRh5IlnlxzWk7b9-47" style="edgeStyle=none;shape=link;rounded=0;orthogonalLoop=1;jettySize=auto;html=1;entryX=0;entryY=0.5;entryDx=0;entryDy=0;labelBackgroundColor=default;strokeColor=default;fontFamily=Helvetica;fontSize=11;fontColor=default;endArrow=classic;" edge="1" parent="1" source="kaFf4kRh5IlnlxzWk7b9-14" target="kaFf4kRh5IlnlxzWk7b9-3">
          <mxGeometry relative="1" as="geometry" />
        </mxCell>
        <mxCell id="kaFf4kRh5IlnlxzWk7b9-14" value="se dividen en" style="rhombus;whiteSpace=wrap;html=1;fillColor=#fff2cc;strokeColor=#d6b656;" vertex="1" parent="1">
          <mxGeometry x="160" y="640" width="120" height="50" as="geometry" />
        </mxCell>
        <mxCell id="kaFf4kRh5IlnlxzWk7b9-39" style="rounded=0;orthogonalLoop=1;jettySize=auto;html=1;shape=link;" edge="1" parent="1" source="kaFf4kRh5IlnlxzWk7b9-15" target="kaFf4kRh5IlnlxzWk7b9-2">
          <mxGeometry relative="1" as="geometry" />
        </mxCell>
        <mxCell id="kaFf4kRh5IlnlxzWk7b9-15" value="TITULO" style="ellipse;whiteSpace=wrap;html=1;" vertex="1" parent="1">
          <mxGeometry x="-190" y="770" width="120" height="40" as="geometry" />
        </mxCell>
        <mxCell id="kaFf4kRh5IlnlxzWk7b9-40" style="rounded=0;orthogonalLoop=1;jettySize=auto;html=1;entryX=0.383;entryY=0.983;entryDx=0;entryDy=0;entryPerimeter=0;shape=link;" edge="1" parent="1" source="kaFf4kRh5IlnlxzWk7b9-17" target="kaFf4kRh5IlnlxzWk7b9-2">
          <mxGeometry relative="1" as="geometry" />
        </mxCell>
        <mxCell id="kaFf4kRh5IlnlxzWk7b9-17" value="RESUMEN" style="ellipse;whiteSpace=wrap;html=1;" vertex="1" parent="1">
          <mxGeometry x="-110" y="800" width="120" height="35" as="geometry" />
        </mxCell>
        <mxCell id="kaFf4kRh5IlnlxzWk7b9-41" style="rounded=0;orthogonalLoop=1;jettySize=auto;html=1;shape=link;" edge="1" parent="1" source="kaFf4kRh5IlnlxzWk7b9-18" target="kaFf4kRh5IlnlxzWk7b9-2">
          <mxGeometry relative="1" as="geometry" />
        </mxCell>
        <mxCell id="kaFf4kRh5IlnlxzWk7b9-18" value="CONTENIDO" style="ellipse;whiteSpace=wrap;html=1;" vertex="1" parent="1">
          <mxGeometry x="-20" y="820" width="120" height="40" as="geometry" />
        </mxCell>
        <mxCell id="kaFf4kRh5IlnlxzWk7b9-43" style="rounded=0;orthogonalLoop=1;jettySize=auto;html=1;shape=link;" edge="1" parent="1" source="kaFf4kRh5IlnlxzWk7b9-19" target="kaFf4kRh5IlnlxzWk7b9-2">
          <mxGeometry relative="1" as="geometry" />
        </mxCell>
        <mxCell id="kaFf4kRh5IlnlxzWk7b9-19" value="IMAGEN" style="ellipse;whiteSpace=wrap;html=1;" vertex="1" parent="1">
          <mxGeometry x="130" y="755" width="120" height="40" as="geometry" />
        </mxCell>
        <mxCell id="kaFf4kRh5IlnlxzWk7b9-42" style="rounded=0;orthogonalLoop=1;jettySize=auto;html=1;shape=link;" edge="1" parent="1" source="kaFf4kRh5IlnlxzWk7b9-20" target="kaFf4kRh5IlnlxzWk7b9-2">
          <mxGeometry relative="1" as="geometry" />
        </mxCell>
        <mxCell id="kaFf4kRh5IlnlxzWk7b9-20" value="ESTADO" style="ellipse;whiteSpace=wrap;html=1;" vertex="1" parent="1">
          <mxGeometry x="70" y="795" width="120" height="40" as="geometry" />
        </mxCell>
        <mxCell id="kaFf4kRh5IlnlxzWk7b9-38" style="rounded=0;orthogonalLoop=1;jettySize=auto;html=1;shape=link;" edge="1" parent="1" source="kaFf4kRh5IlnlxzWk7b9-21" target="kaFf4kRh5IlnlxzWk7b9-2">
          <mxGeometry relative="1" as="geometry" />
        </mxCell>
        <mxCell id="kaFf4kRh5IlnlxzWk7b9-21" value="FECHA DE PUBLICACION" style="ellipse;whiteSpace=wrap;html=1;" vertex="1" parent="1">
          <mxGeometry x="-220" y="730" width="120" height="40" as="geometry" />
        </mxCell>
        <mxCell id="kaFf4kRh5IlnlxzWk7b9-22" value="NOMBRE" style="ellipse;whiteSpace=wrap;html=1;" vertex="1" parent="1">
          <mxGeometry x="320" y="780" width="120" height="40" as="geometry" />
        </mxCell>
        <mxCell id="kaFf4kRh5IlnlxzWk7b9-23" value="DESCRIPCION" style="ellipse;whiteSpace=wrap;html=1;" vertex="1" parent="1">
          <mxGeometry x="500" y="715" width="120" height="40" as="geometry" />
        </mxCell>
        <mxCell id="kaFf4kRh5IlnlxzWk7b9-24" value="IMAGEN" style="ellipse;whiteSpace=wrap;html=1;" vertex="1" parent="1">
          <mxGeometry x="460" y="770" width="120" height="40" as="geometry" />
        </mxCell>
        <mxCell id="kaFf4kRh5IlnlxzWk7b9-31" style="rounded=0;orthogonalLoop=1;jettySize=auto;html=1;shape=link;" edge="1" parent="1" source="kaFf4kRh5IlnlxzWk7b9-25" target="kaFf4kRh5IlnlxzWk7b9-27">
          <mxGeometry relative="1" as="geometry" />
        </mxCell>
        <mxCell id="kaFf4kRh5IlnlxzWk7b9-37" style="rounded=0;orthogonalLoop=1;jettySize=auto;html=1;shape=link;" edge="1" parent="1" source="kaFf4kRh5IlnlxzWk7b9-25" target="kaFf4kRh5IlnlxzWk7b9-26">
          <mxGeometry relative="1" as="geometry" />
        </mxCell>
        <mxCell id="kaFf4kRh5IlnlxzWk7b9-25" value="ESTADO" style="ellipse;whiteSpace=wrap;html=1;" vertex="1" parent="1">
          <mxGeometry x="520" y="640" width="120" height="35" as="geometry" />
        </mxCell>
        <mxCell id="kaFf4kRh5IlnlxzWk7b9-26" value="ACTIVO" style="ellipse;whiteSpace=wrap;html=1;" vertex="1" parent="1">
          <mxGeometry x="660" y="595" width="120" height="40" as="geometry" />
        </mxCell>
        <mxCell id="kaFf4kRh5IlnlxzWk7b9-27" value="INACTIVO" style="ellipse;whiteSpace=wrap;html=1;" vertex="1" parent="1">
          <mxGeometry x="650" y="675" width="120" height="40" as="geometry" />
        </mxCell>
      </root>
    </mxGraphModel>
  </diagram>
</mxfile>
